<?xml version="1.0" encoding="UTF-8"?>
<svg id="Layer_1" data-name="Layer 1" xmlns="http://www.w3.org/2000/svg" viewBox="0 0 491.76 450.15">
  <path d="M377.99,144c25.98,4.67,61.61,21.83,79,42,68.82,79.82,31.34,235.96-76.19,259.31-39.38,8.55-112.47,7.46-145.81-17.31-14.34-10.65-28.63-29.22-37-45-47.53-89.63,11.26-233.56,118.47-242.03,13.79-1.09,47.97.6,61.53,3.03ZM372.56,168.42c-5.1-2.94-13.64-7.78-19.56-6.44,68.39,47.28,63.1,151.52,23.5,216.03,27.57-33.06,40.32-79.4,41.5-122.01l5,31.99c3.2-5.54,2.43-17.65,2.02-24.53-2.11-35.73-20.73-76.74-52.47-95.04ZM420.63,190.36c-6.64-7.53-19.24-17.21-28.63-20.87,40.7,36.18,53.79,92.38,44.01,145.03l1.97.48,10-44,2,17.99c4.01-32.81-7.42-73.75-29.35-98.63ZM475.98,298.99c5.53-45.51-11.88-97.41-52.98-120.99,38.07,36.89,47.46,88.9,38,139.99l11.01-45.99,3.97,26.99ZM344.62,205.37c-78.73-75.26-186.2,110.94-100.09,177.59,81.48,63.07,173-107.9,100.09-177.59Z" style="fill: #011118;"/>
  <path d="M456.99,186c-17.39-20.17-53.02-37.33-79-42l-61.73-24.74c-24.78-14.42-40.09-44.15-65.57-56.57-17.82-8.68-37.84-11.83-57.18-14.71,7.32,8.72,22.94,12.76,32,21,17.97,16.35,24.14,47.2.78,61.81-31.37,19.63-72.6,7.38-103.29-7.79,12,32.38,78.96,49.33,49.5,91.01-29.41,18.17-66.04,6.16-93.4-10.63l-2.1-.38c22.89,45.71,110.46,59.62,90.27,122.73-10.35,13.33-27.78,12.08-41.81,5.28-1.78,4.83,6.83,11.88,10.05,14.96,17.58,16.78,40.57,27.2,62.47,37.03,8.37,15.78,22.66,34.35,37,45-35.8-19.2-80.23-33.61-111.01-60.49-35.53-31.04-45.04-79.89-82.99-109.01,40.55-3.35,54.06,37.69,88.32,43.34,4.9-3.95,3.21-10.9,1.17-15.83-5.56-13.46-46.14-35.1-59.51-47.49-33.5-31.06-48.63-78.31-43.98-123.5,15.01,25.5,38.44,57.48,68.23,66.25,7.51,2.21,35.95,9.35,33.71-5.67-11-15.02-25.92-25.84-37.92-40.12C62.01,100.93,45.38,59.47,0,40.01c17.25-1.23,33.41,2.35,49.51,7.97,39.1,13.67,75.18,56.18,118.03,53.06,30.29-2.2,33.13-22.53,8.37-38.46-25.83-16.62-65.87-19.58-63.91-62.58,25.19,31.36,71.69,24.07,107.77,30.65,23.04,4.2,45.88,11.27,65.12,24.95,16.55,11.76,28.19,29.88,45.79,40.21,15.72,9.22,34.12,12.11,50.66,19.34,32.55,14.24,61.82,37.36,75.65,70.85Z" style="fill: #e2020e;"/>
  <path d="M197.99,383c-21.91-9.83-44.89-20.24-62.47-37.03-3.22-3.07-11.83-10.12-10.05-14.96,14.03,6.8,31.46,8.05,41.81-5.28,20.18-63.1-67.39-77.02-90.27-122.73l2.1.38c27.36,16.79,63.99,28.8,93.4,10.63,29.46-41.67-37.5-58.62-49.5-91.01,30.68,15.17,71.92,27.42,103.29,7.79,23.36-14.61,17.2-45.46-.78-61.81-9.06-8.24-24.68-12.28-32-21,19.34,2.87,39.36,6.02,57.18,14.71,25.48,12.42,40.79,42.15,65.57,56.57l61.73,24.74c-13.56-2.44-47.74-4.12-61.53-3.03-107.2,8.47-165.99,152.4-118.47,242.03Z" style="fill: #fdc208;"/>
  <path d="M344.62,205.37c72.91,69.69-18.61,240.66-100.09,177.59-86.1-66.65,21.36-252.85,100.09-177.59ZM265.37,384.62c75.18,28.51,134.22-133.09,65.94-175.43-83.28-51.65-155.33,141.54-65.94,175.43Z" style="fill: #e2020e;"/>
  <path d="M372.56,168.42c31.73,18.3,50.36,59.31,52.47,95.04.41,6.88,1.18,18.99-2.02,24.53l-5-31.99c-1.18,42.61-13.93,88.94-41.5,122.01,39.6-64.51,44.89-168.75-23.5-216.03,5.92-1.34,14.46,3.5,19.56,6.44Z" style="fill: #fefdfd;"/>
  <path d="M420.63,190.36c21.93,24.88,33.36,65.82,29.35,98.63l-2-17.99-10,44-1.97-.48c9.77-52.65-3.32-108.85-44.01-145.03,9.39,3.66,21.99,13.34,28.63,20.87Z" style="fill: #fefdfd;"/>
  <path d="M475.98,298.99l-3.97-26.99-11.01,45.99c9.46-51.08.07-103.1-38-139.99,41.11,23.58,58.51,75.48,52.98,120.99Z" style="fill: #fefdfd;"/>
  <path d="M265.37,384.62c-89.39-33.89-17.34-227.08,65.94-175.43,68.28,42.35,9.24,203.94-65.94,175.43ZM321.89,218.11c-49.22-19.1-82.88,44.72-84.93,85.35-2,39.67,19.42,85.12,66.01,66.02-13.71,2.56-28.14-2.3-37.51-12.54l15.19-30.03,21.34,1.08,6.62,34.95c6.73-1.17,22.98-13.18,22.21-20.18-.59-5.38-11.64-20.53-12.8-27.35l7.2-21.69,28.81-10.41-3.05-28.32-29.44,15.03-11.53-12.08,11.89-39.84Z" style="fill: #011118;"/>
  <path d="M321.89,218.11l-11.89,39.84,11.53,12.08,29.44-15.03,3.05,28.32-28.81,10.41-7.2,21.69c1.16,6.81,12.22,21.97,12.8,27.35.76,7-15.49,19.01-22.21,20.18l-6.62-34.95-21.34-1.08-15.19,30.03c9.37,10.24,23.8,15.1,37.51,12.54-46.59,19.09-68.01-26.35-66.01-66.02,2.05-40.63,35.71-104.45,84.93-85.35ZM295.99,227c-8.03-1.49-34.01,24.81-33.03,29.47l17.38,11.41,15.65-10.37v-30.5ZM299.75,264.23c-21.08,2.6-35.4,42.6-15.1,55.61,28.29,16.21,50.85-43.78,22.9-54.89-2.58-1.19-5.06-1.06-7.8-.72ZM269.85,288.13l-19.85-8.14c-3.89,17-5.3,35-.99,52l21.03-19.73-.19-24.13Z" style="fill: #fdc208;"/>
  <path d="M299.75,264.23c2.74-.34,5.23-.47,7.8.72,27.95,11.12,5.39,71.1-22.9,54.89-20.3-13.01-5.98-53.01,15.1-55.61Z" style="fill: #011118;"/>
  <path d="M269.85,288.13l.19,24.13-21.03,19.73c-4.31-17-2.89-35.01.99-52l19.85,8.14Z" style="fill: #011118;"/>
  <path d="M295.99,227v30.5l-15.65,10.37-17.38-11.41c-.98-4.66,25-30.95,33.03-29.47Z" style="fill: #011118;"/>
</svg>