<svg style="display:none !important;" xmlns="http://www.w3.org/2000/svg">

    <symbol id="device-desktop" viewBox="0 0 44 40">
        <g fill="currentColor">
            <path d="m40 0h-36c-2.2 0-4 1.8-4 4v24c0 2.2 1.8 4 4 4h14v4h-4v4h16v-4h-4v-4h14c2.2 0 4-1.8 4-4v-24c0-2.2-1.8-4-4-4zm0 28h-36v-24h36z"/>
        </g>
    </symbol>

    <symbol id="device-mobile" viewBox="0 0 26 44">
        <g fill="currentColor">
            <path d="m21 0h-16c-2.8 0-5 2.2-5 5v34c0 2.8 2.2 5 5 5h16c2.8 0 5-2.2 5-5v-34c0-2.8-2.2-5-5-5zm-8 42c-1.7 0-3-1.3-3-3s1.3-3 3-3 3 1.3 3 3-1.3 3-3 3zm9-8h-18v-28h18z"/>
        </g>
    </symbol>

    <symbol id="icon-check" viewBox="0 0 18 13">
        <g fill="currentColor">
            <path d="m6 13c-.3 0-.5 0-.7-.3l-5-5c-.4-.4-.4-1 0-1.4s1-.4 1.4 0l4.3 4.3 10.3-10.3c.4-.4 1-.4 1.4 0s.4 1 0 1.4l-11 11c-.2.2-.5.3-.7.3z"/>
        </g>
    </symbol>

    <symbol id="icon-cookie" viewBox="0 0 40 40">
        <g fill="currentColor">
            <path d="m38.5 17.8c-2.4-.7-4.6-2.9-4.6-5.8 0-1.1-.8-2-1.9-2-4.4.1-8-3.6-8-8 0-1-.7-1.8-1.7-1.9-13.2-1.6-22.3 9.6-22.3 19.9 0 11 9 20 20 20s20.2-9.2 20-20.4c0-.8-.6-1.5-1.5-1.8zm-25.5 8.2c-1.7 0-3-1.3-3-3s1.3-3 3-3 3 1.3 3 3-1.3 3-3 3zm4-10c-1.7 0-3-1.3-3-3s1.3-3 3-3 3 1.3 3 3-1.3 3-3 3zm9 12c-1.1 0-2-.9-2-2s.9-2 2-2 2 .9 2 2-.9 2-2 2z"/>
        </g>
    </symbol>

    <symbol id="icon-arrow" viewBox="0 0 9 6">
        <g fill="none" stroke="currentColor">
            <path d="M8 1.25L4.5 4.75L1 1.25" stroke-linecap="round" stroke-linejoin="round"/>
        </g>
    </symbol>

    <symbol id="icon-calendar" viewBox="0 0 26 26">
        <g>
            <path d="m21 26h-16c-2.8 0-5-2.2-5-5v-14c0-2.8 2.2-5 5-5h16c2.8 0 5 2.2 5 5v14c0 2.8-2.2 5-5 5zm-16-22c-1.7 0-3 1.3-3 3v14c0 1.7 1.3 3 3 3h16c1.7 0 3-1.3 3-3v-14c0-1.7-1.3-3-3-3z"/>
            <path d="m21 22h-4c-.6 0-1-.4-1-1v-4c0-.6.4-1 1-1h4c.6 0 1 .4 1 1v4c0 .6-.4 1-1 1zm-3-2h2v-2h-2z"/>
            <path d="m25 10h-24c-.6 0-1-.4-1-1s.4-1 1-1h24c.6 0 1 .4 1 1s-.4 1-1 1z"/>
            <path d="m8 6c-.6 0-1-.4-1-1v-4c0-.6.4-1 1-1s1 .4 1 1v4c0 .6-.4 1-1 1z"/>
            <path d="m18 6c-.6 0-1-.4-1-1v-4c0-.6.4-1 1-1s1 .4 1 1v4c0 .6-.4 1-1 1z"/>
        </g>
    </symbol>

    <symbol id="icon-support" viewBox="0 0 20 20">
        <g fill="currentColor">
            <path d="m10 0c-5.5 0-10 4.5-10 10v4.1c0 1 .9 1.9 2 1.9h1c.6 0 1-.4 1-1v-5.1c0-.6-.4-1-1-1h-.9c.6-3.9 3.9-6.9 7.9-6.9s7.4 3 7.9 6.9h-.9c-.6 0-1 .4-1 1v6.1c0 1.1-.9 2-2 2h-2v-1h-4v3h6c2.2 0 4-1.8 4-4 1.1 0 2-.8 2-1.9v-4.1c0-5.5-4.5-10-10-10z"/>
        </g>
    </symbol>

    <symbol id="icon-send" viewBox="0 0 24 25">
        <g fill="currentColor">
            <path d="M14.2199 21.9352C13.0399 21.9352 11.3699 21.1052 10.0499 17.1352L9.32988 14.9752L7.16988 14.2552C3.20988 12.9352 2.37988 11.2652 2.37988 10.0852C2.37988 8.91525 3.20988 7.23525 7.16988 5.90525L15.6599 3.07525C17.7799 2.36525 19.5499 2.57525 20.6399 3.65525C21.7299 4.73525 21.9399 6.51525 21.2299 8.63525L18.3999 17.1252C17.0699 21.1052 15.3999 21.9352 14.2199 21.9352ZM7.63988 7.33525C4.85988 8.26525 3.86988 9.36525 3.86988 10.0852C3.86988 10.8052 4.85988 11.9052 7.63988 12.8252L10.1599 13.6652C10.3799 13.7352 10.5599 13.9152 10.6299 14.1352L11.4699 16.6552C12.3899 19.4352 13.4999 20.4252 14.2199 20.4252C14.9399 20.4252 16.0399 19.4352 16.9699 16.6552L19.7999 8.16525C20.3099 6.62525 20.2199 5.36525 19.5699 4.71525C18.9199 4.06525 17.6599 3.98525 16.1299 4.49525L7.63988 7.33525Z"/>
            <path d="M10.11 14.7052C9.92005 14.7052 9.73005 14.6352 9.58005 14.4852C9.29005 14.1952 9.29005 13.7152 9.58005 13.4252L13.16 9.83518C13.45 9.54518 13.93 9.54518 14.22 9.83518C14.51 10.1252 14.51 10.6052 14.22 10.8952L10.64 14.4852C10.5 14.6352 10.3 14.7052 10.11 14.7052Z"/>
        </g>
    </symbol>

    <symbol id="icon-arrow-top-right" viewBox="0 0 24 25">
        <g fill="currentColor">
            <path d="M20.843 4.21239C20.843 3.79817 20.5072 3.46238 20.093 3.46238L13.343 3.46234C12.9288 3.46233 12.593 3.79812 12.593 4.21233C12.593 4.62655 12.9288 4.96233 13.343 4.96234L19.343 4.96238L19.3429 10.9624C19.3429 11.3766 19.6787 11.7124 20.0929 11.7124C20.5072 11.7124 20.8429 11.3766 20.8429 10.9624L20.843 4.21239ZM4.43731 20.9285L20.6233 4.74271L19.5627 3.68205L3.37665 19.8678L4.43731 20.9285Z"/>
        </g>
    </symbol>

    <symbol id="icon-cv" viewBox="0 0 21.5 21.5">
        <g fill="currentColor">
            <path d="m13.8 21.5h-6c-5.4 0-7.8-2.3-7.8-7.8v-6c-0-5.4 2.3-7.7 7.8-7.7h5c.4 0 .8.3.8.8s-.3.8-.8.8h-5c-4.7-.1-6.3 1.5-6.3 6.2v6c0 4.6 1.6 6.2 6.2 6.2h6c4.6 0 6.2-1.6 6.2-6.2v-5c0-.4.3-.7.8-.7s.8.3.8.7v5c0 5.4-2.3 7.8-7.8 7.8z"/>
            <path d="m20.8 9.5h-4c-3.4 0-4.8-1.3-4.8-4.7v-4.1c0-.3.2-.6.5-.7s.6 0 .8.2l8 8c.2.2.3.5.2.8s-.4.5-.7.5zm-7.3-6.9v2.2c0 2.6.7 3.2 3.2 3.2h2.2z"/>
            <path d="m11.8 12.5h-6c-.4 0-.8-.3-.8-.8s.3-.8.8-.8h6c.4 0 .8.3.8.8s-.3.8-.8.8z"/>
            <path d="m9.8 16.5h-4c-.4 0-.8-.3-.8-.8s.3-.8.8-.8h4c.4 0 .8.3.8.8s-.3.8-.8.8z"/>
        </g>
    </symbol>

    <symbol id="icon-social-gh" viewBox="0 0 448 448">
        <g fill="currentColor">
            <path d="M224,0C100.3,0,0,102.8,0,229.7c0,101.5,64.2,187.5,153.2,217.9c11.2,2.1,15.3-5,15.3-11.1c0-5.5-0.2-19.9-0.3-39.1
		c-62.3,13.9-75.5-30.8-75.5-30.8C82.5,340.1,67.8,333,67.8,333c-20.3-14.3,1.5-14,1.5-14c22.5,1.6,34.3,23.7,34.3,23.7
		c20,35.1,52.4,25,65.2,19.1c2-14.8,7.8-25,14.2-30.7c-49.7-5.8-102-25.5-102-113.5c0-25.1,8.7-45.6,23-61.6
		c-2.3-5.8-10-29.2,2.2-60.8c0,0,18.8-6.2,61.6,23.5c17.9-5.1,37-7.6,56.1-7.7c19,0.1,38.2,2.6,56.1,7.7
		c42.8-29.7,61.5-23.5,61.5-23.5c12.2,31.6,4.5,55,2.2,60.8c14.3,16.1,23,36.6,23,61.6c0,88.2-52.4,107.6-102.3,113.3
		c8,7.1,15.2,21.1,15.2,42.5c0,30.7-0.3,55.5-0.3,63c0,6.1,4,13.3,15.4,11C383.9,417.1,448,331.1,448,229.7C448,102.8,347.7,0,224,0
		z"/>
        </g>
    </symbol>

    <symbol id="icon-social-yt" viewBox="0 0 49 48">
        <g fill="currentColor">
            <path d="M40.1,22.8H9c-4.9,0-9,4-9,9V39c0,4.9,4,9,9,9h31.1c4.9,0,9-4,9-9v-7.2C49,26.9,45,22.8,40.1,22.8z M15.5,28.5h-2.9v14.4
		H9.8V28.5H6.9V26h8.6C15.5,26,15.5,28.5,15.5,28.5z M23.7,42.8h-2.5v-1.4c-0.5,0.5-0.9,0.9-1.4,1.1c-0.5,0.3-1,0.4-1.4,0.4
		c-0.6,0-1-0.2-1.3-0.6c-0.3-0.4-0.4-0.9-0.4-1.7V30.4h2.5v9.5c0,0.3,0.1,0.5,0.2,0.6c0.1,0.1,0.3,0.2,0.5,0.2
		c0.2,0,0.4-0.1,0.7-0.3c0.3-0.2,0.5-0.4,0.8-0.7v-9.4h2.5V42.8z M32.7,40.3c0,0.9-0.2,1.6-0.6,2c-0.4,0.5-1,0.7-1.7,0.7
		c-0.5,0-0.9-0.1-1.3-0.3c-0.4-0.2-0.7-0.5-1.1-0.8v1h-2.5V26H28v5.4c0.3-0.4,0.7-0.7,1.1-0.9c0.4-0.2,0.8-0.3,1.1-0.3
		c0.8,0,1.4,0.3,1.8,0.8c0.4,0.5,0.6,1.3,0.6,2.3L32.7,40.3L32.7,40.3z M41.3,36.9h-4.7v2.3c0,0.7,0.1,1.1,0.2,1.4
		c0.2,0.3,0.4,0.4,0.8,0.4c0.4,0,0.7-0.1,0.9-0.3c0.2-0.2,0.2-0.7,0.2-1.4v-0.6h2.6v0.6c0,1.3-0.3,2.2-0.9,2.9c-0.6,0.6-1.5,1-2.8,1
		c-1.1,0-2-0.3-2.6-1c-0.6-0.7-1-1.6-1-2.8v-5.6c0-1.1,0.4-2,1.1-2.6c0.7-0.7,1.6-1,2.7-1c1.1,0,2,0.3,2.6,0.9
		c0.6,0.6,0.9,1.5,0.9,2.7V36.9z"/>
            <path d="M37.6,32.3c-0.4,0-0.7,0.1-0.8,0.3c-0.2,0.2-0.3,0.6-0.3,1.1V35h2.2v-1.3c0-0.5-0.1-0.9-0.3-1.1
		C38.3,32.4,38,32.3,37.6,32.3z"/>
            <path d="M29.1,32.2c-0.2,0-0.4,0-0.5,0.1c-0.2,0.1-0.3,0.2-0.5,0.4v7.7c0.2,0.2,0.4,0.4,0.6,0.4c0.2,0.1,0.4,0.1,0.6,0.1
		c0.3,0,0.5-0.1,0.7-0.3c0.1-0.2,0.2-0.5,0.2-0.9v-6.4c0-0.4-0.1-0.7-0.3-1C29.7,32.4,29.4,32.2,29.1,32.2z"/>
            <polygon points="13,18.5 16.2,18.5 16.2,10.8 19.8,0 16.6,0 14.7,7.4 14.5,7.4 12.5,0 9.3,0 13,11.2 	"/>
            <path d="M24.1,18.9c1.3,0,2.3-0.3,3-1c0.7-0.7,1.1-1.6,1.1-2.8V8.1c0-1-0.4-1.9-1.1-2.6c-0.7-0.7-1.7-1-2.8-1c-1.3,0-2.3,0.3-3,0.9
		c-0.8,0.6-1.1,1.5-1.1,2.5v7.1c0,1.2,0.4,2.1,1.1,2.8C21.9,18.5,22.9,18.9,24.1,18.9z M22.9,7.9c0-0.3,0.1-0.5,0.3-0.7
		c0.2-0.2,0.5-0.3,0.8-0.3c0.4,0,0.7,0.1,0.9,0.3c0.2,0.2,0.3,0.4,0.3,0.7v7.5c0,0.4-0.1,0.7-0.3,0.9c-0.2,0.2-0.5,0.3-0.9,0.3
		c-0.4,0-0.7-0.1-0.9-0.3c-0.2-0.2-0.3-0.5-0.3-0.9L22.9,7.9L22.9,7.9z"/>
            <path d="M32.4,18.7c0.5,0,1.1-0.1,1.6-0.4c0.6-0.3,1.1-0.7,1.6-1.3v1.5h2.8V4.9h-2.8v10.4c-0.3,0.3-0.5,0.5-0.9,0.7
		c-0.3,0.2-0.6,0.3-0.8,0.3c-0.3,0-0.5-0.1-0.6-0.2c-0.1-0.1-0.2-0.4-0.2-0.7V4.9h-2.8v11.4c0,0.8,0.2,1.4,0.5,1.8
		C31.3,18.5,31.7,18.7,32.4,18.7z"/>
        </g>
    </symbol>

    <symbol id="icon-social-bc" viewBox="0 0 400 135">
        <g fill="currentColor">
            <g id="g5071" transform="translate(1337.5001,-329.71448)">
                <g id="g5012" transform="matrix(0.34051609,0,0,0.35174261,-704.62329,570.07201)">
                    <path id="path4925" d="M-1640.4-676.6l-218.2,377.9h418.6l218.2-377.9C-1221.8-676.6-1640.4-676.6-1640.4-676.6z"/>
                    <g id="g4998" transform="translate(2256.2501,-1145.5312)">
                        <path id="path4992" d="M-3455.7,462.2v6.4v365.9v6.4h6.4h41.7h6.4v-6.4V819c17.7,18.2,40.4,27.8,67.2,27.8
				c33.1,0,62.1-13.4,85.6-39.3c23.8-26.2,35.3-63.2,35.3-109.6c0-19.7-2.7-38.3-8.3-55.8c-5.5-17.4-13.2-32.5-23.2-45.1
				c-10-12.7-22.9-22.6-38.3-29.6c-15.4-6.9-31.8-10.4-48.9-10.4c-25.6,0-48,8.9-66.2,25.9V468.6v-6.4h-6.4h-44.9L-3455.7,462.2
				L-3455.7,462.2z M-3335.8,606.7c17.7,0,32.1,7.1,44.9,22.4c12.3,14.8,19.1,38.8,19.1,72.5c0,32.9-7,56.7-20,72.1l0,0.1
				c-13.4,15.9-28.2,23.2-46,23.2c-22.1,0-38.6-9.9-51.9-31.6c-7.5-12.3-12-34.4-12-65.6c0-31.3,6.9-54.3,20-69.9
				C-3368.4,614.1-3353.6,606.7-3335.8,606.7L-3335.8,606.7z"/>
                        <path id="path4988" d="M-3057.5,557c-23.8,0-46.1,5.6-66.4,16.9c-20.6,11.4-36.1,28.7-46,51.3c-9.9,22.4-14.8,48.4-14.8,77.7
				c0,45.3,11.4,81.1,34.8,106.3c23.2,25,54.5,37.6,92.2,37.6c30.2,0,56.4-9.2,77.4-27.4c21.1-18.3,34.2-43.7,39.2-75.3l1-6.5
				l-6.5-0.8l-44.2-5.8l-6.3-0.8l-0.9,6.3c-3,21.5-10,36.5-20.4,46.1c-10.6,9.7-23.5,14.6-39.8,14.6c-20.4,0-36-7.1-48.5-21.9
				c-12.1-14.4-19-38.7-19-73.5c0-34.2,7-58.3,19.7-72.8c13-14.9,29.2-22.2,50.3-22.2c13.7,0,24.8,4,34.2,12
				c9.3,7.9,16.1,19.9,20,36.7l1.3,5.8l5.8-0.9l43.7-6.8l6.5-1l-1.3-6.5c-5.4-28-17.9-50.2-37.5-65.8
				C-3002.5,564.7-3027.7,557-3057.5,557z"/>
                    </g>
                </g>
            </g>
        </g>
    </symbol>

    <symbol id="icon-social-ld" viewBox="0 0 420 401.4">
        <g fill="currentColor">
            <path d="m5.3 130.6h90v270.9h-90zm45.6-130.6c-30.8 0-50.9 20.2-50.9 46.8s19.5 46.8 49.8 46.8h.6c31.4 0 50.9-20.8 50.9-46.8-.6-26.6-19.6-46.8-50.4-46.8zm265.4 124.2c-47.8 0-69.2 26.3-81.1 44.7v-38.3h-90c1.2 25.4 0 270.9 0 270.9h90v-151.3c0-8.1.6-16.2 3-22 6.5-16.2 21.3-32.9 46.2-32.9s45.6 24.9 45.6 61.2v144.9h90v-155.3c0-83.2-44.4-121.9-103.7-121.9z"/>
        </g>
    </symbol>

    <symbol id="icon-quote-open">
        <g>
            <path d="m96 128c-11.3 0-21.9 2.3-32 5.9v-5.9c0-35.3 28.7-64 64-64 17.7 0 32-14.3 32-32s-14.3-32-32-32c-70.6 0-128 57.4-128 128v96c0 53 43 96 96 96s96-43 96-96-43-96-96-96zm256 0c-11.3 0-22 2.3-32 5.9v-5.9c0-35.3 28.7-64 64-64 17.7 0 32-14.3 32-32s-14.3-32-32-32c-70.6 0-128 57.4-128 128v96c0 53 43 96 96 96s96-43 96-96-43-96-96-96z"/>
        </g>
    </symbol>

    <symbol id="icon-quote-close">
        <g>
            <path d="m96 0c-53 0-96 42.1-96 96s43 96 96 96c11.3 0 21.9-2.3 32-5.9v5.9c0 35.3-28.7 64-64 64-17.7 0-32 14.3-32 32s14.3 32 32 32c70.6 0 128-57.4 128-128v-96c0-53.9-43-96-96-96zm352 96c0-53-43-96-96-96s-96 43-96 96 43 96 96 96c11.3 0 22-2.3 32-5.9v5.9c0 35.3-28.7 64-64 64-17.7 0-32 14.3-32 32s14.3 32 32 32c70.6 0 128-57.4 128-128z"/>
        </g>
    </symbol>

    <symbol id="logo-wordpress-frame" viewBox="0 0 79 79">
        <path opacity="0.2" d="M39.5 0C17.7355 0 0 17.7355 0 39.5C0 61.2645 17.7355 79 39.5 79C61.2645 79 79 61.2645 79 39.5C79 17.7355 61.2645 0 39.5 0ZM3.9895 39.5C3.9895 34.365 5.0955 29.467 7.0705 25.043L24.016 71.4555C12.166 65.6885 3.9895 53.562 3.9895 39.5ZM39.5 75.0105C36.024 75.0105 32.6665 74.497 29.467 73.549L40.132 42.581L51.034 72.4825C51.113 72.6405 51.192 72.838 51.271 72.9565C47.5975 74.2995 43.6475 75.0105 39.5 75.0105ZM44.398 22.831C46.531 22.7125 48.4665 22.4755 48.4665 22.4755C50.3625 22.2385 50.165 19.434 48.2295 19.5525C48.2295 19.5525 42.4625 19.987 38.7495 19.987C35.2735 19.987 29.388 19.5525 29.388 19.5525C27.492 19.4735 27.255 22.3965 29.1905 22.515C29.1905 22.515 31.0075 22.752 32.9035 22.8705L38.4335 38.0385L30.652 61.3435L17.7355 22.831C19.8685 22.752 21.804 22.515 21.804 22.515C23.7 22.278 23.5025 19.4735 21.567 19.592C21.567 19.592 15.8 20.0265 12.087 20.0265C11.4155 20.0265 10.6255 20.0265 9.796 19.987C16.195 10.349 27.097 3.9895 39.5 3.9895C48.743 3.9895 57.1565 7.505 63.4765 13.3115C63.3185 13.3115 63.1605 13.272 63.0025 13.272C59.5265 13.272 57.038 16.3135 57.038 19.592C57.038 22.515 58.7365 25.0035 60.514 27.9265C61.857 30.2965 63.437 33.338 63.437 37.7225C63.437 40.764 62.252 44.2795 60.751 49.217L57.196 61.067L44.398 22.831ZM70.6655 22.4755C75.1001 30.5957 76.1904 40.1261 73.7042 49.038C71.218 57.9499 65.3517 65.5396 57.354 70.1915L68.2165 38.8285C70.231 33.7725 70.9025 29.704 70.9025 26.1095C70.9025 24.806 70.8235 23.5815 70.6655 22.4755Z" fill="black"/>
    </symbol>

    <symbol id="illustration-weird-arrow-01">
        <g>
            <path style="fill:none;stroke:#FED546;stroke-width:3;" d="M65.9,2.6c-3.7,0.6-13.2,5.9-12.6,14.5 M53.3,17.1c0.2,2.5,0.4,5.7,3.2,8C59.4,27.6,65.3,21.8,53.3,17.1z
	 M53.3,17.1c-6.8-2.4-21.4-3.5-25.1,11.2C25.9,40,31.7,54,34.8,63.2c-7.1-11.1-25-24-34.6-25.2"/>
            <path style="fill:#FED546;" d="M64.7,6.9l1.1-4.5l-4.6-1L61.5,0l6,1.3l-1.4,5.9L64.7,6.9z"/>
            <path style="fill:none;stroke:#FED546;stroke-width:3;" d="M22.9,76.1c0.1-1.3,0.7-4.7,2.4-8"/>
            <path style="fill:none;stroke:#FED546;stroke-width:3;" d="M1.7,76c3.4-3.7,12-11.5,19.3-13.4"/>
            <path style="fill:none;stroke:#FED546;stroke-width:3;" d="M52.2,3c-1.7-0.1-5.1,3.5-4.1,7.1"/>
        </g>
    </symbol>

    <symbol id="illustration-weird-arrow-02" viewBox="0 0 40 68" fill="none">
        <path d="M0.775391 5.75857C13.4135 2.48202 28.3224 -1.68656 35.5486 11.9085C39.0647 18.5236 38.8535 26.3543 34.2401 33.003C31.2184 37.3578 25.635 44.6063 20.2234 42.995C8.50641 39.5063 16.2957 26.9038 27.3071 29.3263C32.6943 30.5115 34.9617 36.5476 35.5486 41.327C36.4541 48.7007 33.9154 56.1415 28.7892 61.5692C28.1777 62.2166 26.3968 63.8785 24.1985 65.6177" stroke="#FED546" stroke-width="3"/>
        <path d="M26.3223 53.877C26.3399 56.1131 22.4519 63.8484 23.682 66.0626C24.283 67.1445 37.3206 64.2872 38.6845 64.2872" stroke="#FED546" stroke-width="3"/>
    </symbol>

</svg>
