<svg style="display:none !important;" xmlns="http://www.w3.org/2000/svg">

    <symbol id="device-desktop" viewBox="0 0 44 40">
        <g fill="currentColor">
            <path d="m40 0h-36c-2.2 0-4 1.8-4 4v24c0 2.2 1.8 4 4 4h14v4h-4v4h16v-4h-4v-4h14c2.2 0 4-1.8 4-4v-24c0-2.2-1.8-4-4-4zm0 28h-36v-24h36z"/>
        </g>
    </symbol>

    <symbol id="device-mobile" viewBox="0 0 26 44">
        <g fill="currentColor">
            <path d="m21 0h-16c-2.8 0-5 2.2-5 5v34c0 2.8 2.2 5 5 5h16c2.8 0 5-2.2 5-5v-34c0-2.8-2.2-5-5-5zm-8 42c-1.7 0-3-1.3-3-3s1.3-3 3-3 3 1.3 3 3-1.3 3-3 3zm9-8h-18v-28h18z"/>
        </g>
    </symbol>

    <symbol id="quote-open">
        <g fill="currentColor">
            <path d="m96 128c-11.3 0-21.9 2.3-32 5.9v-5.9c0-35.3 28.7-64 64-64 17.7 0 32-14.3 32-32s-14.3-32-32-32c-70.6 0-128 57.4-128 128v96c0 53 43 96 96 96s96-43 96-96-43-96-96-96zm256 0c-11.3 0-22 2.3-32 5.9v-5.9c0-35.3 28.7-64 64-64 17.7 0 32-14.3 32-32s-14.3-32-32-32c-70.6 0-128 57.4-128 128v96c0 53 43 96 96 96s96-43 96-96-43-96-96-96z"/>
        </g>
    </symbol>

    <symbol id="quote-close">
        <g fill="currentColor">
            <path d="m96 0c-53 0-96 42.1-96 96s43 96 96 96c11.3 0 21.9-2.3 32-5.9v5.9c0 35.3-28.7 64-64 64-17.7 0-32 14.3-32 32s14.3 32 32 32c70.6 0 128-57.4 128-128v-96c0-53.9-43-96-96-96zm352 96c0-53-43-96-96-96s-96 43-96 96 43 96 96 96c11.3 0 22-2.3 32-5.9v5.9c0 35.3-28.7 64-64 64-17.7 0-32 14.3-32 32s14.3 32 32 32c70.6 0 128-57.4 128-128z"/>
        </g>
    </symbol>

    <symbol id="icon-check" viewBox="0 0 18 13">
        <g fill="currentColor">
            <path d="m6 13c-.3 0-.5 0-.7-.3l-5-5c-.4-.4-.4-1 0-1.4s1-.4 1.4 0l4.3 4.3 10.3-10.3c.4-.4 1-.4 1.4 0s.4 1 0 1.4l-11 11c-.2.2-.5.3-.7.3z"/>
        </g>
    </symbol>

    <symbol id="icon-cookie" viewBox="0 0 40 40">
        <g fill="currentColor">
            <path d="m38.5 17.8c-2.4-.7-4.6-2.9-4.6-5.8 0-1.1-.8-2-1.9-2-4.4.1-8-3.6-8-8 0-1-.7-1.8-1.7-1.9-13.2-1.6-22.3 9.6-22.3 19.9 0 11 9 20 20 20s20.2-9.2 20-20.4c0-.8-.6-1.5-1.5-1.8zm-25.5 8.2c-1.7 0-3-1.3-3-3s1.3-3 3-3 3 1.3 3 3-1.3 3-3 3zm4-10c-1.7 0-3-1.3-3-3s1.3-3 3-3 3 1.3 3 3-1.3 3-3 3zm9 12c-1.1 0-2-.9-2-2s.9-2 2-2 2 .9 2 2-.9 2-2 2z"/>
        </g>
    </symbol>

    <symbol id="icon-arrow" viewBox="0 0 9 6">
        <g fill="none" stroke="currentColor">
            <path d="M8 1.25L4.5 4.75L1 1.25" stroke-linecap="round" stroke-linejoin="round"/>
        </g>
    </symbol>

    <symbol id="icon-calendar" viewBox="0 0 26 26">
        <g fill="currentColor">
            <path d="m21 26h-16c-2.8 0-5-2.2-5-5v-14c0-2.8 2.2-5 5-5h16c2.8 0 5 2.2 5 5v14c0 2.8-2.2 5-5 5zm-16-22c-1.7 0-3 1.3-3 3v14c0 1.7 1.3 3 3 3h16c1.7 0 3-1.3 3-3v-14c0-1.7-1.3-3-3-3z"/>
            <path d="m21 22h-4c-.6 0-1-.4-1-1v-4c0-.6.4-1 1-1h4c.6 0 1 .4 1 1v4c0 .6-.4 1-1 1zm-3-2h2v-2h-2z"/>
            <path d="m25 10h-24c-.6 0-1-.4-1-1s.4-1 1-1h24c.6 0 1 .4 1 1s-.4 1-1 1z"/>
            <path d="m8 6c-.6 0-1-.4-1-1v-4c0-.6.4-1 1-1s1 .4 1 1v4c0 .6-.4 1-1 1z"/>
            <path d="m18 6c-.6 0-1-.4-1-1v-4c0-.6.4-1 1-1s1 .4 1 1v4c0 .6-.4 1-1 1z"/>
        </g>
    </symbol>

    <symbol id="icon-support" viewBox="0 0 20 20">
        <g fill="currentColor">
            <path d="m10 0c-5.5 0-10 4.5-10 10v4.1c0 1 .9 1.9 2 1.9h1c.6 0 1-.4 1-1v-5.1c0-.6-.4-1-1-1h-.9c.6-3.9 3.9-6.9 7.9-6.9s7.4 3 7.9 6.9h-.9c-.6 0-1 .4-1 1v6.1c0 1.1-.9 2-2 2h-2v-1h-4v3h6c2.2 0 4-1.8 4-4 1.1 0 2-.8 2-1.9v-4.1c0-5.5-4.5-10-10-10z"/>
        </g>
    </symbol>

    <symbol id="icon-send" viewBox="0 0 24 25">
        <g fill="currentColor">
            <path d="M14.2199 21.9352C13.0399 21.9352 11.3699 21.1052 10.0499 17.1352L9.32988 14.9752L7.16988 14.2552C3.20988 12.9352 2.37988 11.2652 2.37988 10.0852C2.37988 8.91525 3.20988 7.23525 7.16988 5.90525L15.6599 3.07525C17.7799 2.36525 19.5499 2.57525 20.6399 3.65525C21.7299 4.73525 21.9399 6.51525 21.2299 8.63525L18.3999 17.1252C17.0699 21.1052 15.3999 21.9352 14.2199 21.9352ZM7.63988 7.33525C4.85988 8.26525 3.86988 9.36525 3.86988 10.0852C3.86988 10.8052 4.85988 11.9052 7.63988 12.8252L10.1599 13.6652C10.3799 13.7352 10.5599 13.9152 10.6299 14.1352L11.4699 16.6552C12.3899 19.4352 13.4999 20.4252 14.2199 20.4252C14.9399 20.4252 16.0399 19.4352 16.9699 16.6552L19.7999 8.16525C20.3099 6.62525 20.2199 5.36525 19.5699 4.71525C18.9199 4.06525 17.6599 3.98525 16.1299 4.49525L7.63988 7.33525Z"/>
            <path d="M10.11 14.7052C9.92005 14.7052 9.73005 14.6352 9.58005 14.4852C9.29005 14.1952 9.29005 13.7152 9.58005 13.4252L13.16 9.83518C13.45 9.54518 13.93 9.54518 14.22 9.83518C14.51 10.1252 14.51 10.6052 14.22 10.8952L10.64 14.4852C10.5 14.6352 10.3 14.7052 10.11 14.7052Z"/>
        </g>
    </symbol>

    <symbol id="icon-arrow-top-right" viewBox="0 0 24 25">
        <g fill="currentColor">
            <path d="M20.843 4.21239C20.843 3.79817 20.5072 3.46238 20.093 3.46238L13.343 3.46234C12.9288 3.46233 12.593 3.79812 12.593 4.21233C12.593 4.62655 12.9288 4.96233 13.343 4.96234L19.343 4.96238L19.3429 10.9624C19.3429 11.3766 19.6787 11.7124 20.0929 11.7124C20.5072 11.7124 20.8429 11.3766 20.8429 10.9624L20.843 4.21239ZM4.43731 20.9285L20.6233 4.74271L19.5627 3.68205L3.37665 19.8678L4.43731 20.9285Z"/>
        </g>
    </symbol>

    <symbol id="icon-cv" viewBox="0 0 21.5 21.5">
        <g fill="currentColor">
            <path d="m13.8 21.5h-6c-5.4 0-7.8-2.3-7.8-7.8v-6c-0-5.4 2.3-7.7 7.8-7.7h5c.4 0 .8.3.8.8s-.3.8-.8.8h-5c-4.7-.1-6.3 1.5-6.3 6.2v6c0 4.6 1.6 6.2 6.2 6.2h6c4.6 0 6.2-1.6 6.2-6.2v-5c0-.4.3-.7.8-.7s.8.3.8.7v5c0 5.4-2.3 7.8-7.8 7.8z"/>
            <path d="m20.8 9.5h-4c-3.4 0-4.8-1.3-4.8-4.7v-4.1c0-.3.2-.6.5-.7s.6 0 .8.2l8 8c.2.2.3.5.2.8s-.4.5-.7.5zm-7.3-6.9v2.2c0 2.6.7 3.2 3.2 3.2h2.2z"/>
            <path d="m11.8 12.5h-6c-.4 0-.8-.3-.8-.8s.3-.8.8-.8h6c.4 0 .8.3.8.8s-.3.8-.8.8z"/>
            <path d="m9.8 16.5h-4c-.4 0-.8-.3-.8-.8s.3-.8.8-.8h4c.4 0 .8.3.8.8s-.3.8-.8.8z"/>
        </g>
    </symbol>

    <symbol id="icon-social-gh" viewBox="0 0 448 448">
        <g fill="currentColor">
            <path d="M224,0C100.3,0,0,102.8,0,229.7c0,101.5,64.2,187.5,153.2,217.9c11.2,2.1,15.3-5,15.3-11.1c0-5.5-0.2-19.9-0.3-39.1
		c-62.3,13.9-75.5-30.8-75.5-30.8C82.5,340.1,67.8,333,67.8,333c-20.3-14.3,1.5-14,1.5-14c22.5,1.6,34.3,23.7,34.3,23.7
		c20,35.1,52.4,25,65.2,19.1c2-14.8,7.8-25,14.2-30.7c-49.7-5.8-102-25.5-102-113.5c0-25.1,8.7-45.6,23-61.6
		c-2.3-5.8-10-29.2,2.2-60.8c0,0,18.8-6.2,61.6,23.5c17.9-5.1,37-7.6,56.1-7.7c19,0.1,38.2,2.6,56.1,7.7
		c42.8-29.7,61.5-23.5,61.5-23.5c12.2,31.6,4.5,55,2.2,60.8c14.3,16.1,23,36.6,23,61.6c0,88.2-52.4,107.6-102.3,113.3
		c8,7.1,15.2,21.1,15.2,42.5c0,30.7-0.3,55.5-0.3,63c0,6.1,4,13.3,15.4,11C383.9,417.1,448,331.1,448,229.7C448,102.8,347.7,0,224,0
		z"/>
        </g>
    </symbol>

    <symbol id="icon-social-yt" viewBox="0 0 49 48">
        <g fill="currentColor">
            <path d="M40.1,22.8H9c-4.9,0-9,4-9,9V39c0,4.9,4,9,9,9h31.1c4.9,0,9-4,9-9v-7.2C49,26.9,45,22.8,40.1,22.8z M15.5,28.5h-2.9v14.4
		H9.8V28.5H6.9V26h8.6C15.5,26,15.5,28.5,15.5,28.5z M23.7,42.8h-2.5v-1.4c-0.5,0.5-0.9,0.9-1.4,1.1c-0.5,0.3-1,0.4-1.4,0.4
		c-0.6,0-1-0.2-1.3-0.6c-0.3-0.4-0.4-0.9-0.4-1.7V30.4h2.5v9.5c0,0.3,0.1,0.5,0.2,0.6c0.1,0.1,0.3,0.2,0.5,0.2
		c0.2,0,0.4-0.1,0.7-0.3c0.3-0.2,0.5-0.4,0.8-0.7v-9.4h2.5V42.8z M32.7,40.3c0,0.9-0.2,1.6-0.6,2c-0.4,0.5-1,0.7-1.7,0.7
		c-0.5,0-0.9-0.1-1.3-0.3c-0.4-0.2-0.7-0.5-1.1-0.8v1h-2.5V26H28v5.4c0.3-0.4,0.7-0.7,1.1-0.9c0.4-0.2,0.8-0.3,1.1-0.3
		c0.8,0,1.4,0.3,1.8,0.8c0.4,0.5,0.6,1.3,0.6,2.3L32.7,40.3L32.7,40.3z M41.3,36.9h-4.7v2.3c0,0.7,0.1,1.1,0.2,1.4
		c0.2,0.3,0.4,0.4,0.8,0.4c0.4,0,0.7-0.1,0.9-0.3c0.2-0.2,0.2-0.7,0.2-1.4v-0.6h2.6v0.6c0,1.3-0.3,2.2-0.9,2.9c-0.6,0.6-1.5,1-2.8,1
		c-1.1,0-2-0.3-2.6-1c-0.6-0.7-1-1.6-1-2.8v-5.6c0-1.1,0.4-2,1.1-2.6c0.7-0.7,1.6-1,2.7-1c1.1,0,2,0.3,2.6,0.9
		c0.6,0.6,0.9,1.5,0.9,2.7V36.9z"/>
            <path d="M37.6,32.3c-0.4,0-0.7,0.1-0.8,0.3c-0.2,0.2-0.3,0.6-0.3,1.1V35h2.2v-1.3c0-0.5-0.1-0.9-0.3-1.1
		C38.3,32.4,38,32.3,37.6,32.3z"/>
            <path d="M29.1,32.2c-0.2,0-0.4,0-0.5,0.1c-0.2,0.1-0.3,0.2-0.5,0.4v7.7c0.2,0.2,0.4,0.4,0.6,0.4c0.2,0.1,0.4,0.1,0.6,0.1
		c0.3,0,0.5-0.1,0.7-0.3c0.1-0.2,0.2-0.5,0.2-0.9v-6.4c0-0.4-0.1-0.7-0.3-1C29.7,32.4,29.4,32.2,29.1,32.2z"/>
            <polygon points="13,18.5 16.2,18.5 16.2,10.8 19.8,0 16.6,0 14.7,7.4 14.5,7.4 12.5,0 9.3,0 13,11.2 	"/>
            <path d="M24.1,18.9c1.3,0,2.3-0.3,3-1c0.7-0.7,1.1-1.6,1.1-2.8V8.1c0-1-0.4-1.9-1.1-2.6c-0.7-0.7-1.7-1-2.8-1c-1.3,0-2.3,0.3-3,0.9
		c-0.8,0.6-1.1,1.5-1.1,2.5v7.1c0,1.2,0.4,2.1,1.1,2.8C21.9,18.5,22.9,18.9,24.1,18.9z M22.9,7.9c0-0.3,0.1-0.5,0.3-0.7
		c0.2-0.2,0.5-0.3,0.8-0.3c0.4,0,0.7,0.1,0.9,0.3c0.2,0.2,0.3,0.4,0.3,0.7v7.5c0,0.4-0.1,0.7-0.3,0.9c-0.2,0.2-0.5,0.3-0.9,0.3
		c-0.4,0-0.7-0.1-0.9-0.3c-0.2-0.2-0.3-0.5-0.3-0.9L22.9,7.9L22.9,7.9z"/>
            <path d="M32.4,18.7c0.5,0,1.1-0.1,1.6-0.4c0.6-0.3,1.1-0.7,1.6-1.3v1.5h2.8V4.9h-2.8v10.4c-0.3,0.3-0.5,0.5-0.9,0.7
		c-0.3,0.2-0.6,0.3-0.8,0.3c-0.3,0-0.5-0.1-0.6-0.2c-0.1-0.1-0.2-0.4-0.2-0.7V4.9h-2.8v11.4c0,0.8,0.2,1.4,0.5,1.8
		C31.3,18.5,31.7,18.7,32.4,18.7z"/>
        </g>
    </symbol>

    <symbol id="icon-social-bc" viewBox="0 0 400 135">
        <g fill="currentColor">
            <g id="g5071" transform="translate(1337.5001,-329.71448)">
                <g id="g5012" transform="matrix(0.34051609,0,0,0.35174261,-704.62329,570.07201)">
                    <path id="path4925" d="M-1640.4-676.6l-218.2,377.9h418.6l218.2-377.9C-1221.8-676.6-1640.4-676.6-1640.4-676.6z"/>
                    <g id="g4998" transform="translate(2256.2501,-1145.5312)">
                        <path id="path4992" d="M-3455.7,462.2v6.4v365.9v6.4h6.4h41.7h6.4v-6.4V819c17.7,18.2,40.4,27.8,67.2,27.8
				c33.1,0,62.1-13.4,85.6-39.3c23.8-26.2,35.3-63.2,35.3-109.6c0-19.7-2.7-38.3-8.3-55.8c-5.5-17.4-13.2-32.5-23.2-45.1
				c-10-12.7-22.9-22.6-38.3-29.6c-15.4-6.9-31.8-10.4-48.9-10.4c-25.6,0-48,8.9-66.2,25.9V468.6v-6.4h-6.4h-44.9L-3455.7,462.2
				L-3455.7,462.2z M-3335.8,606.7c17.7,0,32.1,7.1,44.9,22.4c12.3,14.8,19.1,38.8,19.1,72.5c0,32.9-7,56.7-20,72.1l0,0.1
				c-13.4,15.9-28.2,23.2-46,23.2c-22.1,0-38.6-9.9-51.9-31.6c-7.5-12.3-12-34.4-12-65.6c0-31.3,6.9-54.3,20-69.9
				C-3368.4,614.1-3353.6,606.7-3335.8,606.7L-3335.8,606.7z"/>
                        <path id="path4988" d="M-3057.5,557c-23.8,0-46.1,5.6-66.4,16.9c-20.6,11.4-36.1,28.7-46,51.3c-9.9,22.4-14.8,48.4-14.8,77.7
				c0,45.3,11.4,81.1,34.8,106.3c23.2,25,54.5,37.6,92.2,37.6c30.2,0,56.4-9.2,77.4-27.4c21.1-18.3,34.2-43.7,39.2-75.3l1-6.5
				l-6.5-0.8l-44.2-5.8l-6.3-0.8l-0.9,6.3c-3,21.5-10,36.5-20.4,46.1c-10.6,9.7-23.5,14.6-39.8,14.6c-20.4,0-36-7.1-48.5-21.9
				c-12.1-14.4-19-38.7-19-73.5c0-34.2,7-58.3,19.7-72.8c13-14.9,29.2-22.2,50.3-22.2c13.7,0,24.8,4,34.2,12
				c9.3,7.9,16.1,19.9,20,36.7l1.3,5.8l5.8-0.9l43.7-6.8l6.5-1l-1.3-6.5c-5.4-28-17.9-50.2-37.5-65.8
				C-3002.5,564.7-3027.7,557-3057.5,557z"/>
                    </g>
                </g>
            </g>
        </g>
    </symbol>

    <symbol id="icon-social-ld" viewBox="0 0 420 401.4">
        <g fill="currentColor">
            <path d="m5.3 130.6h90v270.9h-90zm45.6-130.6c-30.8 0-50.9 20.2-50.9 46.8s19.5 46.8 49.8 46.8h.6c31.4 0 50.9-20.8 50.9-46.8-.6-26.6-19.6-46.8-50.4-46.8zm265.4 124.2c-47.8 0-69.2 26.3-81.1 44.7v-38.3h-90c1.2 25.4 0 270.9 0 270.9h90v-151.3c0-8.1.6-16.2 3-22 6.5-16.2 21.3-32.9 46.2-32.9s45.6 24.9 45.6 61.2v144.9h90v-155.3c0-83.2-44.4-121.9-103.7-121.9z"/>
        </g>
    </symbol>

    <symbol id="icon-social-ms" viewBox="0 0 48.714 49.017">
        <g fill="currentColor">
            <path d="m24.357 0c-13.452 0-24.357 10.16-24.357 22.693 0 7.142 3.542 13.511 9.077 17.671v8.653l8.293-4.58c2.213.616 4.558.949 6.987.949 13.452 0 24.357-10.16 24.357-22.693s-10.905-22.693-24.357-22.693zm2.421 30.56-6.203-6.657-12.103 6.657 13.313-14.221 6.354 6.657 11.952-6.657z"/>
        </g>
    </symbol>

    <symbol id="icon-social-vb" viewBox="0 0 485.568 512.064">
        <g fill="currentColor">
            <path d="m430.81 49.862c-12.7-11.7-64.1-49-178.7-49.5 0 0-135.1-8.1-200.9 52.3-36.6 36.6-49.5 90.3-50.9 156.8s-3.1 191.1 117 224.9h.1l-.1 51.6s-.8 20.9 13 25.1c16.6 5.2 26.4-10.7 42.3-27.8 8.7-9.4 20.7-23.2 29.8-33.7 82.2 6.9 145.3-8.9 152.5-11.2 16.6-5.4 110.5-17.4 125.7-142 15.8-128.6-7.6-209.8-49.8-246.5zm13.9 237.1c-12.9 104-89 110.6-103 115.1-6 1.9-61.5 15.7-131.2 11.2 0 0-52 62.7-68.2 79-5.3 5.3-11.1 4.8-11-5.7 0-6.9.4-85.7.4-85.7q-.1 0 0 0c-101.8-28.2-95.8-134.3-94.7-189.8s11.6-101 42.6-131.6c55.7-50.5 170.4-43 170.4-43 96.9.4 143.3 29.6 154.1 39.4 35.7 30.6 53.9 103.8 40.6 211.1zm-139-80.8c.4 8.6-12.5 9.2-12.9.6-1.1-22-11.4-32.7-32.6-33.9-8.6-.5-7.8-13.4.7-12.9 27.9 1.5 43.4 17.5 44.8 46.2zm20.3 11.3c1-42.4-25.5-75.6-75.8-79.3-8.5-.6-7.6-13.5.9-12.9 58 4.2 88.9 44.1 87.8 92.5-.1 8.6-13.1 8.2-12.9-.3zm47 13.4c.1 8.6-12.9 8.7-12.9.1-.6-81.5-54.9-125.9-120.8-126.4-8.5-.1-8.5-12.9 0-12.9 73.7.5 133 51.4 133.7 139.2zm-11.3 98.1v.2c-10.8 19-31 40-51.8 33.3l-.2-.3c-21.1-5.9-70.8-31.5-102.2-56.5-16.2-12.8-31-27.9-42.4-42.4-10.3-12.9-20.7-28.2-30.8-46.6-21.3-38.5-26-55.7-26-55.7-6.7-20.8 14.2-41 33.3-51.8h.2c9.2-4.8 18-3.2 23.9 3.9 0 0 12.4 14.8 17.7 22.1 5 6.8 11.7 17.7 15.2 23.8 6.1 10.9 2.3 22-3.7 26.6l-12 9.6c-6.1 4.9-5.3 14-5.3 14s17.8 67.3 84.3 84.3c0 0 9.1.8 14-5.3l9.6-12c4.6-6 15.7-9.8 26.6-3.7 14.7 8.3 33.4 21.2 45.8 32.9 7 5.7 8.6 14.4 3.8 23.6z"/>
        </g>
    </symbol>

    <symbol id="icon-social-tg" viewBox="0 0 216.533 196.153">
        <g fill="currentColor">
            <path d="m162.916 196.153c-3.907 0-7.633-1.408-10.584-4.021l-88.272-77.667-51.199-10.278c-7.056-1.447-12.187-7.221-12.801-14.374-.609-7.105 3.432-13.623 10.056-16.218l184.595-72.499c2.996-1.161 6.199-1.402 9.298-.711 4.171.93 7.73 3.429 10.022 7.036s3.042 7.892 2.112 12.063l-37.61 164.244c-.597 2.603-1.847 5.033-3.617 7.031-2.831 3.198-6.74 5.104-11.006 5.363-.332.021-.664.03-.994.03zm-146.906-107.655c.01.002.021.005.034.007l53.267 10.693c1.376.276 2.656.91 3.71 1.837l89.9 79.1 37.617-164.178-184.533 72.514c.001.009.003.019.005.027zm-4.52-6.664 4.375 6.698c.02-.013.042-.035.064-.059s.008-.009.011-.014z"/><path d="m67.743 115.043c-2.482 0-4.928-1.151-6.492-3.316-2.587-3.582-1.78-8.583 1.801-11.17l136.099-98.3c3.584-2.587 8.582-1.781 11.17 1.801 2.587 3.582 1.78 8.583-1.801 11.169l-136.1 98.301c-1.416 1.022-3.055 1.516-4.677 1.516z"/><path d="m75.732 188.128c-4.227 0-8.208-1.631-11.223-4.601-3.026-2.979-4.766-7.125-4.773-11.373v-65.112c0-4.418 3.582-8 8-8s8 3.582 8 8v65.1l31.244-31.257c3.125-3.124 8.19-3.122 11.314 0 3.124 3.125 3.124 8.19 0 11.314l-31.201 31.199c-2.956 3.001-6.961 4.696-11.234 4.729h-.126z"/>
        </g>
    </symbol>

    <symbol id="icon-social-wh" viewBox="0 0 49.477 49.715">
        <g fill="currentColor">
            <g fill-rule="evenodd"><path d="m42.268 7.225c-4.651-4.657-10.836-7.222-17.426-7.225-13.579 0-24.63 11.051-24.635 24.633-.002 4.342 1.133 8.58 3.288 12.316l-3.495 12.766 13.059-3.426c3.598 1.963 7.649 2.997 11.773 2.999h.01s0 0 0 0c13.577 0 24.629-11.052 24.635-24.635.002-6.583-2.558-12.772-7.209-17.428zm-17.426 37.902h-.008c-3.674-.001-7.278-.989-10.421-2.854l-.748-.444-7.75 2.033 2.069-7.556-.487-.775c-2.05-3.26-3.132-7.028-3.13-10.897.004-11.289 9.19-20.474 20.484-20.474 5.469.002 10.61 2.134 14.476 6.005 3.866 3.87 5.994 9.015 5.991 14.486-.005 11.29-9.19 20.476-20.476 20.476z"/><path d="m36.073 29.792c-.616-.308-3.642-1.797-4.206-2.003-.564-.205-.975-.308-1.385.308s-1.59 2.003-1.949 2.414-.718.462-1.334.154c-.615-.308-2.599-.958-4.95-3.055-1.83-1.632-3.065-3.648-3.424-4.264s-.038-.949.27-1.256c.277-.276.616-.719.923-1.078.308-.359.41-.616.615-1.027s.103-.77-.051-1.078-1.385-3.338-1.898-4.571c-.5-1.2-1.007-1.038-1.385-1.057-.358-.018-.769-.022-1.18-.022s-1.077.154-1.641.77-2.155 2.106-2.155 5.135 2.206 5.957 2.514 6.368 4.34 6.628 10.515 9.295c1.469.634 2.615 1.013 3.509 1.297 1.475.469 2.817.402 3.877.244 1.183-.177 3.642-1.489 4.155-2.927s.513-2.671.359-2.927c-.154-.257-.564-.411-1.18-.719z"/></g>
        </g>
    </symbol>

    <symbol id="icon-phone" viewBox="0 0 24.41 24.4">
        <g fill="currentColor">
            <path d="m21.51 24.4h-.2c-3.78-.42-7.27-1.66-10.42-3.7-2.86-1.84-5.34-4.32-7.18-7.18-2-2.98-3.28-6.57-3.71-10.35-.06-.81.17-1.57.66-2.15.5-.6 1.21-.96 2-1.02h3.75c1.56 0 2.77 1.07 2.9 2.55.08.93.33 1.96.77 3.14.37 1.1.14 2.22-.61 3.1l-1.2 1.2c1.55 2.49 3.66 4.61 6.15 6.15l1.17-1.17c.77-.77 1.99-1.02 3.11-.65 1.2.44 2.23.69 3.16.77 1.48.25 2.5 1.43 2.54 2.9v3.5c0 1.63-1.27 2.9-2.9 2.9zm-18.8-23.2c-.91.07-1.58.87-1.5 1.85.4 3.57 1.61 6.97 3.5 9.81 1.75 2.72 4.11 5.08 6.83 6.83 3 1.94 6.31 3.12 9.84 3.51h.13c.97 0 1.7-.73 1.7-1.7v-3.4c0-.93-.6-1.66-1.5-1.81-1-.09-2.12-.36-3.41-.83-.67-.22-1.43-.08-1.87.36l-1.83 1.83-.4-.23c-2.97-1.74-5.47-4.24-7.21-7.21l-.23-.4 1.83-1.83c.45-.52.58-1.2.35-1.89-.46-1.27-.73-2.4-.83-3.44-.07-.86-.77-1.45-1.7-1.45h-3.7z"/>
        </g>
    </symbol>

    <symbol id="icon-alert-triangle" viewBox="0 0 21.995 19.044">
        <g fill="currentColor">
            <path d="m19.468 19.044h-16.943c-.438 0-.87-.112-1.25-.324-.385-.214-.706-.525-.93-.9-.223-.378-.343-.808-.345-1.246-.003-.437.111-.867.329-1.246l8.664-14.391c.208-.262.471-.48.772-.64.745-.396 1.737-.396 2.485 0 .389.206.713.509.939.878l8.472 14.145c.223.385.337.815.334 1.254-.003.438-.122.868-.346 1.245-.224.375-.545.687-.93.9-.381.212-.813.324-1.252.324zm-9.952-17.107-8.325 13.897c-.125.218-.193.475-.191.733.001.262.072.518.205.741s.325.409.557.538c.233.13.471.212.769.197h16.936c.27 0 .534-.068.767-.197.23-.129.423-.315.557-.539.133-.223.204-.479.205-.739.002-.261-.066-.517-.195-.741l-8.467-14.133c-.13-.212-.322-.391-.553-.513-.459-.244-1.089-.244-1.547 0-.231.123-.423.301-.556.518l-.163.239z"/>
            <path d="m10.442 6.577h1v4h-1z"/>
            <circle cx="10.942" cy="14.577" r=".5"/>
        </g>
    </symbol>

    <symbol id="icon-award" viewBox="0 0 13 21.486">
        <g fill="currentColor">
            <path d="m6.5 13c-3.584 0-6.5-2.916-6.5-6.5s2.916-6.5 6.5-6.5 6.5 2.916 6.5 6.5-2.916 6.5-6.5 6.5zm0-12c-3.033 0-5.5 2.467-5.5 5.5s2.467 5.5 5.5 5.5 5.5-2.467 5.5-5.5-2.468-5.5-5.5-5.5z"/>
            <path d="m12.172 21.486-5.672-3.403-5.672 3.403 1.702-10.178.986.165-1.344 8.041 4.328-2.597 4.328 2.597-1.345-8.041.987-.165z"/>
        </g>
    </symbol>

    <symbol id="icon-battery" viewBox="0 0 45 26">
        <g fill="currentColor">
            <path d="m37 26h-32c-2.757 0-5-2.243-5-5v-16c0-2.757 2.243-5 5-5h32c2.757 0 5 2.243 5 5v3h2c.553 0 1 .448 1 1v8c0 .553-.447 1-1 1h-2v3c0 2.757-2.243 5-5 5zm-32-24c-1.654 0-3 1.346-3 3v16c0 1.654 1.346 3 3 3h32c1.654 0 3-1.346 3-3v-4c0-.553.447-1 1-1h2v-6h-2c-.553 0-1-.448-1-1v-4c0-1.654-1.346-3-3-3z"/>
            <path d="m5 22c-.552 0-1-.447-1-1v-16c0-.552.448-1 1-1s1 .448 1 1v16c0 .553-.448 1-1 1z"/>
            <path d="m9 22c-.552 0-1-.447-1-1v-16c0-.552.448-1 1-1s1 .448 1 1v16c0 .553-.448 1-1 1z"/>
            <path d="m13 22c-.552 0-1-.447-1-1v-16c0-.552.448-1 1-1s1 .448 1 1v16c0 .553-.448 1-1 1z"/>
            <path d="m17 22c-.552 0-1-.447-1-1v-16c0-.552.448-1 1-1s1 .448 1 1v16c0 .553-.448 1-1 1z"/>
            <path d="m21 22c-.552 0-1-.447-1-1v-16c0-.552.448-1 1-1s1 .448 1 1v16c0 .553-.448 1-1 1z"/>
            <path d="m25 22c-.553 0-1-.447-1-1v-16c0-.552.447-1 1-1s1 .448 1 1v16c0 .553-.447 1-1 1z"/>
        </g>
    </symbol>

    <symbol id="icon-car" viewBox="0 0 19 15">
        <g fill="currentColor">
            <path d="m16.025 6.658-1.885-5.658h-9.28l-1.886 5.658-.948-.316 2.114-6.342h10.72l2.115 6.342z"/>
            <path d="m16.5 15h-14c-1.378 0-2.5-1.121-2.5-2.5v-4c0-1.378 1.122-2.5 2.5-2.5h14c1.379 0 2.5 1.122 2.5 2.5v4c0 1.379-1.121 2.5-2.5 2.5zm-14-8c-.827 0-1.5.673-1.5 1.5v4c0 .827.673 1.5 1.5 1.5h14c.827 0 1.5-.673 1.5-1.5v-4c0-.827-.673-1.5-1.5-1.5z"/>
            <circle cx="4.5" cy="11.5" r="1"/>
            <circle cx="14.5" cy="11.5" r="1"/>
            <path d="m2 3.5h1v3h-1z"/>
            <path d="m16 3.5h1v3h-1z"/>
        </g>
    </symbol>

    <symbol id="icon-check-circle" viewBox="0 0 21 21">
        <g fill="currentColor">
            <path d="m10.5 21c-5.79 0-10.5-4.71-10.5-10.5s4.71-10.5 10.5-10.5 10.5 4.71 10.5 10.5-4.71 10.5-10.5 10.5zm0-20c-5.238 0-9.5 4.262-9.5 9.5s4.262 9.5 9.5 9.5 9.5-4.262 9.5-9.5-4.262-9.5-9.5-9.5z"/>
            <path d="m9.5 13.207-2.354-2.353.708-.708 1.646 1.647 3.646-3.647.708.708z"/>
        </g>
    </symbol>

    <symbol id="icon-clock" viewBox="0 0 21 21">
        <g fill="currentColor">
            <path d="m10.5 21c-5.79 0-10.5-4.71-10.5-10.5s4.71-10.5 10.5-10.5 10.5 4.71 10.5 10.5-4.71 10.5-10.5 10.5zm0-20c-5.238 0-9.5 4.262-9.5 9.5s4.262 9.5 9.5 9.5 9.5-4.262 9.5-9.5-4.262-9.5-9.5-9.5z"/>
            <path d="m14.276 12.947-4.276-2.138v-6.309h1v5.691l3.724 1.862z"/>
        </g>
    </symbol>

    <symbol id="icon-dollar" viewBox="0 0 13 20">
        <g fill="currentColor">
            <path d="m7 20h-1v-2.5h-5.5v-1h5.5v-6h-2c-2.206 0-4-1.794-4-4s1.794-4 4-4h2v-2.5h1v2.5h4.5v1h-4.5v6h2c2.206 0 4 1.794 4 4s-1.794 4-4 4h-2zm0-3.5h2c1.654 0 3-1.346 3-3s-1.346-3-3-3h-2zm-3-13c-1.654 0-3 1.346-3 3s1.346 3 3 3h2v-6z"/>
        </g>
    </symbol>

    <symbol id="icon-electric-car" viewBox="0 0 19 18.724">
        <g fill="currentColor">
            <path d="m16.025 10.382-1.885-5.658h-9.28l-1.886 5.658-.948-.317 2.114-6.341h10.72l2.115 6.341z"/>
            <path d="m16.5 18.724h-14c-1.378 0-2.5-1.121-2.5-2.5v-4c0-1.378 1.122-2.5 2.5-2.5h14c1.379 0 2.5 1.122 2.5 2.5v4c0 1.379-1.121 2.5-2.5 2.5zm-14-8c-.827 0-1.5.673-1.5 1.5v4c0 .827.673 1.5 1.5 1.5h14c.827 0 1.5-.673 1.5-1.5v-4c0-.827-.673-1.5-1.5-1.5z"/>
            <circle cx="4.5" cy="15.224" r="1"/>
            <circle cx="14.5" cy="15.224" r="1"/>
            <path d="m8.993 14.306-.986-.164.903-5.418h-3.219l4.362-8.724.894.447-3.638 7.277h2.781z"/>
        </g>
    </symbol>

    <symbol id="icon-mail" viewBox="0 0 21 17">
        <g fill="currentColor">
            <path d="m18.5 17h-16c-1.378 0-2.5-1.121-2.5-2.5v-12c0-1.378 1.122-2.5 2.5-2.5h16c1.379 0 2.5 1.122 2.5 2.5v12c0 1.379-1.121 2.5-2.5 2.5zm-16-16c-.827 0-1.5.673-1.5 1.5v12c0 .827.673 1.5 1.5 1.5h16c.827 0 1.5-.673 1.5-1.5v-12c0-.827-.673-1.5-1.5-1.5z"/>
            <path d="m10.5 10.11-10.287-7.2.574-.82 9.713 6.8 9.713-6.8.574.82z"/>
        </g>
    </symbol>

    <symbol id="icon-map-pin" viewBox="0 0 19 23.101">
        <g fill="currentColor">
            <path d="m9.5 23.101-.277-.185c-.376-.251-9.223-6.231-9.223-13.416 0-2.538.988-4.923 2.783-6.717 1.794-1.795 4.179-2.783 6.717-2.783s4.923.988 6.718 2.783c1.794 1.794 2.782 4.18 2.782 6.717 0 7.185-8.846 13.165-9.223 13.416zm0-22.101c-2.271 0-4.405.884-6.01 2.49-1.605 1.605-2.49 3.74-2.49 6.01 0 5.97 7.006 11.317 8.5 12.39 1.494-1.072 8.5-6.42 8.5-12.39 0-2.271-.884-4.405-2.489-6.01-1.606-1.605-3.74-2.49-6.011-2.49z"/>
            <path d="m9.5 13c-1.93 0-3.5-1.57-3.5-3.5s1.57-3.5 3.5-3.5 3.5 1.57 3.5 3.5-1.57 3.5-3.5 3.5zm0-6c-1.378 0-2.5 1.122-2.5 2.5s1.122 2.5 2.5 2.5 2.5-1.122 2.5-2.5-1.121-2.5-2.5-2.5z"/>
        </g>
    </symbol>

    <symbol id="icon-phone-call" viewBox="0 0 23.888 21.929">
        <g fill="currentColor">
            <path d="m18.392 21.929c-.076 0-.152-.004-.229-.011-3.147-.342-6.207-1.431-8.856-3.148-2.459-1.562-4.587-3.69-6.15-6.151-1.723-2.659-2.812-5.733-3.146-8.886-.032-.355.008-.7.119-1.03.112-.332.288-.63.523-.888s.517-.46.836-.602c.318-.141.657-.213 1.007-.213h3.001c.625.007 1.19.208 1.65.604s.76.944.845 1.546c.123.925.349 1.834.673 2.705.168.448.205.932.105 1.4-.101.469-.332.897-.668 1.237l-.999.999c1.305 2.169 3.124 3.988 5.292 5.293l.998-.998c.343-.339.771-.569 1.238-.669.467-.101.954-.063 1.401.105.871.324 1.78.551 2.699.671.612.088 1.165.393 1.562.86.396.467.605 1.061.593 1.672v2.994c0 .351-.069.691-.21 1.011s-.342.604-.6.84c-.262.238-.561.414-.89.525-.259.088-.525.133-.797.133zm-12.874-19.929h-3.02c-.209 0-.413.043-.604.127-.192.085-.36.207-.501.361-.142.155-.247.334-.314.533-.066.198-.091.404-.072.613.317 2.99 1.352 5.912 2.991 8.443 1.488 2.342 3.509 4.363 5.849 5.85 2.523 1.637 5.432 2.671 8.416 2.995.202.021.407-.006.605-.074.199-.067.38-.173.536-.316.152-.14.273-.31.358-.503.083-.189.127-.399.126-.607v-3.014c.009-.369-.117-.727-.355-1.008-.237-.28-.569-.464-.935-.516-.988-.13-1.971-.374-2.915-.726-.271-.103-.562-.125-.842-.063-.281.06-.537.197-.741.399l-1.538 1.538-.331-.188c-2.581-1.468-4.72-3.607-6.188-6.188l-.188-.331 1.54-1.54c.2-.202.338-.459.399-.74.06-.281.038-.572-.063-.841-.351-.942-.596-1.924-.728-2.92-.05-.356-.23-.686-.506-.923-.272-.234-.619-.363-.978-.363z"/>
            <path d="m18.888 9.5h-1c0-1.202-.468-2.333-1.318-3.182-.85-.85-1.979-1.318-3.182-1.318v-1c1.469 0 2.85.572 3.889 1.611s1.611 2.42 1.611 3.889z"/>
            <path d="m23.888 10.5h-1c0-2.538-.988-4.923-2.782-6.718-1.795-1.794-4.181-2.782-6.718-2.782v-1c2.804 0 5.44 1.092 7.425 3.075 1.983 1.983 3.075 4.621 3.075 7.425z"/>
        </g>
    </symbol>

    <symbol id="icon-shield" viewBox="0 0 17 21.093">
        <g fill="currentColor">
            <path d="m8.5 21.093-.224-.111c-.338-.169-8.276-4.21-8.276-10.447v-7.347l8.5-3.188 8.5 3.188v7.347c0 6.237-7.938 10.278-8.276 10.447zm-7.5-17.212v6.653c0 5.071 6.23 8.739 7.5 9.434 1.27-.694 7.5-4.362 7.5-9.434v-6.653l-7.5-2.812z"/>
        </g>
    </symbol>

    <symbol id="icon-star-filled" viewBox="0 0 20 19.02">
        <g fill="currentColor">
            <path d="m10 0 3.09 6.26 6.91 1.01-5 4.87 1.18 6.88-6.18-3.25-6.18 3.25 1.18-6.88-5-4.87 6.91-1.01z"/>
        </g>
    </symbol>

    <symbol id="icon-star" viewBox="0 0 22.148 21.063">
        <g fill="currentColor">
            <path d="m17.918 21.063-6.844-3.6-6.844 3.6 1.307-7.619-5.537-5.393 7.652-1.119 3.422-6.932 3.422 6.933 7.652 1.119-5.537 5.393 1.307 7.619zm-15.77-12.315 4.463 4.347-1.053 6.141 5.516-2.9 5.516 2.9-1.053-6.141 4.463-4.347-6.168-.902-2.758-5.587-2.758 5.587-6.168.902z"/>
        </g>
    </symbol>

    <symbol id="icon-tools" viewBox="0 0 20.008 20.004">
        <g fill="currentColor">
            <path d="m2.622 20.004c-.671 0-1.343-.256-1.854-.767-.495-.495-.768-1.153-.768-1.854s.273-1.358.768-1.854l6.672-6.672c-1.244-3.193.22-6.851 3.378-8.28 1.703-.771 3.656-.771 5.359 0l.658.298-4.271 4.271-.363-.344.357.35c-.189.193-.189.508 0 .701l1.596 1.596c.19.186.504.186.696-.003l4.277-4.278.298.659c.716 1.582.773 3.348.161 4.972-.612 1.625-1.82 2.914-3.402 3.629-1.598.723-3.414.77-5.037.136l-6.673 6.673c-.511.511-1.183.767-1.854.767zm10.876-19.004c-.773 0-1.547.163-2.268.489-2.763 1.25-3.993 4.516-2.743 7.279l.143.315-7.154 7.154c-.306.307-.475.713-.475 1.146s.169.84.475 1.146c.631.63 1.659.631 2.293 0l7.154-7.155.315.143c1.441.652 3.094.652 4.535 0 1.338-.606 2.36-1.696 2.879-3.071.43-1.141.47-2.364.125-3.512l-3.222 3.222c-.584.572-1.524.571-2.104.003l-1.603-1.603c-.57-.583-.57-1.525-.004-2.104l3.225-3.225c-.513-.152-1.042-.229-1.571-.229z"/>
        </g>
    </symbol>

    <symbol id="icon-tow-truck" viewBox="0 0 19 18">
        <g fill="currentColor">
            <path d="m13.5 18c-1.207 0-2.218-.86-2.45-2h-3.1c-.232 1.14-1.242 2-2.45 2s-2.217-.86-2.45-2h-.55c-1.378 0-2.5-1.121-2.5-2.5v-13.5h12.5c1.379 0 2.5 1.122 2.5 2.5v2.5h1.809l2.191 4.382v4.118c0 1.379-1.121 2.5-2.5 2.5h-.55c-.232 1.14-1.243 2-2.45 2zm-6.5-3h5v.5c0 .827.673 1.5 1.5 1.5s1.5-.673 1.5-1.5v-.5h1.5c.827 0 1.5-.673 1.5-1.5v-3.882l-1.809-3.618h-2.191v-3.5c0-.827-.673-1.5-1.5-1.5h-11.5v12.5c0 .827.673 1.5 1.5 1.5h1.5v.5c0 .827.673 1.5 1.5 1.5s1.5-.673 1.5-1.5z"/>
            <path d="m.5 5h10v1h-10z"/>
            <circle cx="5.5" cy="15.5" r="1.5"/>
            <circle cx="13.5" cy="15.5" r="1.5"/>
            <path d="m19 12h-5v-7h2.809l2.191 4.382zm-4-1h3v-1.382l-1.809-3.618h-1.191z"/>
        </g>
    </symbol>

    <symbol id="icon-wheel" viewBox="0 0 21 21">
        <g fill="currentColor">
            <path d="m10.5 21c-5.79 0-10.5-4.71-10.5-10.5s4.71-10.5 10.5-10.5 10.5 4.71 10.5 10.5-4.71 10.5-10.5 10.5zm0-20c-5.238 0-9.5 4.262-9.5 9.5s4.262 9.5 9.5 9.5 9.5-4.262 9.5-9.5-4.262-9.5-9.5-9.5z"/>
            <path d="m10.5 15c-2.481 0-4.5-2.019-4.5-4.5s2.019-4.5 4.5-4.5 4.5 2.019 4.5 4.5-2.019 4.5-4.5 4.5zm0-8c-1.93 0-3.5 1.57-3.5 3.5s1.57 3.5 3.5 3.5 3.5-1.57 3.5-3.5-1.57-3.5-3.5-3.5z"/>
            <path d="m11 20.5h-1v-4h1zm6.219-2.574-2.828-2.828.707-.707 2.828 2.828zm-13.435 0-.707-.707 2.828-2.828.707.707zm16.716-6.926h-4v-1h4zm-16 0h-4v-1h4zm10.597-4.39-.707-.707 2.828-2.828.707.707zm-9.194 0-2.827-2.827.707-.707 2.827 2.827zm5.097-2.11h-1v-4h1z"/>
        </g>
    </symbol>

    <symbol id="icon-zap" viewBox="0 0 20.135 23.26">
        <g fill="currentColor">
            <path d="m8.36 23.26 1.141-9.13h-9.501l11.775-14.13-1.142 9.13h9.501l-11.775 14.13zm-6.225-10.13h8.499l-.859 6.87 8.225-9.87h-8.499l.859-6.87z"/>
        </g>
    </symbol>

    <symbol id="icon-home" viewBox="0 0 48 45.384">
        <g fill="currentColor">
            <path d="m42 45.384h-14v-13h-8v13h-14v-21c0-.552.447-1 1-1s1 .448 1 1v19h10v-13h12v13h10v-18c0-.552.447-1 1-1s1 .448 1 1z"/>
            <path d="m47 24.384c-.249 0-.497-.092-.691-.277l-22.309-21.339-22.309 21.339c-.399.381-1.032.368-1.414-.031-.382-.399-.367-1.032.031-1.414l23.692-22.662 23.691 22.661c.398.382.413 1.015.031 1.414-.196.205-.458.309-.722.309z"/>
            <path d="m39 12.384c-.553 0-1-.448-1-1v-6h-6c-.553 0-1-.448-1-1s.447-1 1-1h8v8c0 .552-.447 1-1 1z"/>
        </g>
    </symbol>

    <symbol id="icon-key" viewBox="0 0 21.919 21.021">
        <g fill="currentColor">
            <path d="m6.446 21.021c-1.65 0-3.3-.622-4.564-1.869-2.559-2.647-2.487-6.771.09-9.261 2.291-2.214 5.758-2.425 8.273-.631l8.967-8.967c.391-.391 1.023-.391 1.414 0s.391 1.023 0 1.414l-1.293 1.293 2.293 2.293c.391.391.391 1.023 0 1.414l-3.5 3.5c-.391.391-1.023.391-1.414 0l-2.293-2.293-2.746 2.746c1.871 2.528 1.677 6.122-.6 8.43-1.27 1.287-2.949 1.932-4.627 1.932zm.042-10.961c-1.125 0-2.25.423-3.127 1.27-1.784 1.725-1.834 4.578-.111 6.363 1.802 1.776 4.656 1.759 6.399-.008 1.741-1.765 1.724-4.617-.039-6.36-.876-.843-2-1.265-3.123-1.265zm9.345-3.56 1.586 1.586 2.086-2.086-1.586-1.586z"/>
        </g>
    </symbol>

    <symbol id="icon-email" viewBox="0 0 48 34">
        <g fill="currentColor">
            <path d="m45 0h-42c-1.657 0-3 1.343-3 3v28c0 1.657 1.343 3 3 3h42c1.657 0 3-1.343 3-3v-28c0-1.657-1.343-3-3-3zm-.64 2-20.36 15.74-20.36-15.74zm-42.36 28.59v-27.33l15.41 11.91zm1.41 1.41 15.59-15.59 4.38 3.39c.36.277.86.277 1.22 0l4.4-3.39 15.59 15.59zm42.59-1.41-15.41-15.42 15.41-11.91z"/>
        </g>
    </symbol>

    <symbol id="icon-map-pin-2" viewBox="0 0 303.97 402.17">
        <g fill="currentColor">
            <path d="m152 402.17c-2.563 0-5.083-.658-7.32-1.91-89.354-49.836-144.718-144.148-144.68-246.46 0-2.053.02-4.1.06-6.14 1-45.48 17.93-83.78 49-110.75 27.48-23.8 64.03-36.91 102.94-36.91s75.45 13.11 102.9 36.91c31.1 27 48.06 65.27 49 110.75 0 2 .07 4.09.07 6.14.027 51.021-13.798 101.091-40 144.87-25.434 42.405-61.509 77.425-104.65 101.59-2.237 1.252-4.757 1.909-7.32 1.91zm0-372.17c-31.69 0-61.26 10.5-83.25 29.58-24.53 21.26-37.91 51.94-38.69 88.72 0 1.82-.06 3.66-.06 5.5-.03 88.414 46.265 170.38 122 216 35.387-21.396 65.007-51.119 86.28-86.58 23.399-39.113 35.744-83.842 35.72-129.42 0-1.84 0-3.68-.06-5.5-.79-36.78-14.17-67.46-38.69-88.72-22-19.08-51.56-29.58-83.25-29.58z"/><path d="m152.39 248.6c-52.091 0-94.32-42.229-94.32-94.32s42.229-94.32 94.32-94.32 94.32 42.229 94.32 94.32c-.055 52.069-42.251 94.265-94.32 94.32zm0-158.63c-35.523 0-64.32 28.797-64.32 64.32s28.797 64.32 64.32 64.32 64.32-28.797 64.32-64.32v-.01c-.061-35.491-28.829-64.241-64.32-64.28z"/>
        </g>
    </symbol>

    <symbol id="icon-tip" viewBox="0 0 30 30">
        <g fill="currentColor">
            <path d="m15 30c-8.284 0-15-6.716-15-15s6.716-15 15-15 15 6.716 15 15-6.716 15-15 15zm0-28c-7.18 0-13 5.82-13 13s5.82 13 13 13 13-5.82 13-13-5.82-13-13-13z"/><path d="m14 13h2v9h-2z"/><path d="m15 11c-1.105 0-2-.895-2-2s.895-2 2-2 2 .895 2 2-.895 2-2 2z"/>
        </g>
    </symbol>

    <symbol id="icon-calc" viewBox="0 0 36 44">
        <g fill="currentColor">
            <path d="m30 44h-24c-3.309 0-6-2.691-6-6v-32c0-3.309 2.691-6 6-6h24c3.309 0 6 2.691 6 6v32c0 3.309-2.691 6-6 6zm-24-40c-1.103 0-2 .897-2 2v32c0 1.103.897 2 2 2h24c1.103 0 2-.897 2-2v-32c0-1.103-.897-2-2-2z"/><path d="m26 12h-16c-1.104 0-2-.896-2-2s.896-2 2-2h16c1.104 0 2 .896 2 2s-.896 2-2 2z"/><path d="m26 36c-1.104 0-2-.896-2-2v-8c0-1.104.896-2 2-2s2 .896 2 2v8c0 1.104-.896 2-2 2z"/><path d="m26.02 20c-1.104 0-2.01-.896-2.01-2s.886-2 1.99-2h.02c1.104 0 2 .896 2 2s-.896 2-2 2z"/><path d="m18.02 20c-1.104 0-2.01-.896-2.01-2s.886-2 1.99-2h.02c1.105 0 2 .896 2 2s-.895 2-2 2z"/><path d="m10.02 20c-1.104 0-2.01-.896-2.01-2s.886-2 1.99-2h.02c1.104 0 2 .896 2 2s-.896 2-2 2z"/><path d="m18.02 28c-1.104 0-2.01-.896-2.01-2s.886-2 1.99-2h.02c1.105 0 2 .896 2 2s-.895 2-2 2z"/><path d="m10.02 28c-1.104 0-2.01-.896-2.01-2s.886-2 1.99-2h.02c1.104 0 2 .896 2 2s-.896 2-2 2z"/><path d="m18.02 36c-1.104 0-2.01-.896-2.01-2s.886-2 1.99-2h.02c1.105 0 2 .896 2 2s-.895 2-2 2z"/><path d="m10.02 36c-1.104 0-2.01-.896-2.01-2s.886-2 1.99-2h.02c1.104 0 2 .896 2 2s-.896 2-2 2z"/>
        </g>
    </symbol>

</svg>
