<svg viewBox="0 0 19 23.101" xmlns="http://www.w3.org/2000/svg"><path d="m9.5 23.101-.277-.185c-.376-.251-9.223-6.231-9.223-13.416 0-2.538.988-4.923 2.783-6.717 1.794-1.795 4.179-2.783 6.717-2.783s4.923.988 6.718 2.783c1.794 1.794 2.782 4.18 2.782 6.717 0 7.185-8.846 13.165-9.223 13.416zm0-22.101c-2.271 0-4.405.884-6.01 2.49-1.605 1.605-2.49 3.74-2.49 6.01 0 5.97 7.006 11.317 8.5 12.39 1.494-1.072 8.5-6.42 8.5-12.39 0-2.271-.884-4.405-2.489-6.01-1.606-1.605-3.74-2.49-6.011-2.49z"/><path d="m9.5 13c-1.93 0-3.5-1.57-3.5-3.5s1.57-3.5 3.5-3.5 3.5 1.57 3.5 3.5-1.57 3.5-3.5 3.5zm0-6c-1.378 0-2.5 1.122-2.5 2.5s1.122 2.5 2.5 2.5 2.5-1.122 2.5-2.5-1.121-2.5-2.5-2.5z"/></svg>