<svg viewBox="0 0 19 15" xmlns="http://www.w3.org/2000/svg"><path d="m16.025 6.658-1.885-5.658h-9.28l-1.886 5.658-.948-.316 2.114-6.342h10.72l2.115 6.342z"/><path d="m16.5 15h-14c-1.378 0-2.5-1.121-2.5-2.5v-4c0-1.378 1.122-2.5 2.5-2.5h14c1.379 0 2.5 1.122 2.5 2.5v4c0 1.379-1.121 2.5-2.5 2.5zm-14-8c-.827 0-1.5.673-1.5 1.5v4c0 .827.673 1.5 1.5 1.5h14c.827 0 1.5-.673 1.5-1.5v-4c0-.827-.673-1.5-1.5-1.5z"/><circle cx="4.5" cy="11.5" r="1"/><circle cx="14.5" cy="11.5" r="1"/><path d="m2 3.5h1v3h-1z"/><path d="m16 3.5h1v3h-1z"/></svg>