<svg viewBox="0 0 20.008 20.004" xmlns="http://www.w3.org/2000/svg"><path d="m2.622 20.004c-.671 0-1.343-.256-1.854-.767-.495-.495-.768-1.153-.768-1.854s.273-1.358.768-1.854l6.672-6.672c-1.244-3.193.22-6.851 3.378-8.28 1.703-.771 3.656-.771 5.359 0l.658.298-4.271 4.271-.363-.344.357.35c-.189.193-.189.508 0 .701l1.596 1.596c.19.186.504.186.696-.003l4.277-4.278.298.659c.716 1.582.773 3.348.161 4.972-.612 1.625-1.82 2.914-3.402 3.629-1.598.723-3.414.77-5.037.136l-6.673 6.673c-.511.511-1.183.767-1.854.767zm10.876-19.004c-.773 0-1.547.163-2.268.489-2.763 1.25-3.993 4.516-2.743 7.279l.143.315-7.154 7.154c-.306.307-.475.713-.475 1.146s.169.84.475 1.146c.631.63 1.659.631 2.293 0l7.154-7.155.315.143c1.441.652 3.094.652 4.535 0 1.338-.606 2.36-1.696 2.879-3.071.43-1.141.47-2.364.125-3.512l-3.222 3.222c-.584.572-1.524.571-2.104.003l-1.603-1.603c-.57-.583-.57-1.525-.004-2.104l3.225-3.225c-.513-.152-1.042-.229-1.571-.229z"/></svg>