<svg viewBox="0 0 19 18" xmlns="http://www.w3.org/2000/svg"><path d="m13.5 18c-1.207 0-2.218-.86-2.45-2h-3.1c-.232 1.14-1.242 2-2.45 2s-2.217-.86-2.45-2h-.55c-1.378 0-2.5-1.121-2.5-2.5v-13.5h12.5c1.379 0 2.5 1.122 2.5 2.5v2.5h1.809l2.191 4.382v4.118c0 1.379-1.121 2.5-2.5 2.5h-.55c-.232 1.14-1.243 2-2.45 2zm-6.5-3h5v.5c0 .827.673 1.5 1.5 1.5s1.5-.673 1.5-1.5v-.5h1.5c.827 0 1.5-.673 1.5-1.5v-3.882l-1.809-3.618h-2.191v-3.5c0-.827-.673-1.5-1.5-1.5h-11.5v12.5c0 .827.673 1.5 1.5 1.5h1.5v.5c0 .827.673 1.5 1.5 1.5s1.5-.673 1.5-1.5z"/><path d="m.5 5h10v1h-10z"/><circle cx="5.5" cy="15.5" r="1.5"/><circle cx="13.5" cy="15.5" r="1.5"/><path d="m19 12h-5v-7h2.809l2.191 4.382zm-4-1h3v-1.382l-1.809-3.618h-1.191z"/></svg>