<svg viewBox="0 0 19 18.724" xmlns="http://www.w3.org/2000/svg"><path d="m16.025 10.382-1.885-5.658h-9.28l-1.886 5.658-.948-.317 2.114-6.341h10.72l2.115 6.341z"/><path d="m16.5 18.724h-14c-1.378 0-2.5-1.121-2.5-2.5v-4c0-1.378 1.122-2.5 2.5-2.5h14c1.379 0 2.5 1.122 2.5 2.5v4c0 1.379-1.121 2.5-2.5 2.5zm-14-8c-.827 0-1.5.673-1.5 1.5v4c0 .827.673 1.5 1.5 1.5h14c.827 0 1.5-.673 1.5-1.5v-4c0-.827-.673-1.5-1.5-1.5z"/><circle cx="4.5" cy="15.224" r="1"/><circle cx="14.5" cy="15.224" r="1"/><path d="m8.993 14.306-.986-.164.903-5.418h-3.219l4.362-8.724.894.447-3.638 7.277h2.781z"/></svg>