<svg viewBox="0 0 21 21" xmlns="http://www.w3.org/2000/svg"><path d="m10.5 21c-5.79 0-10.5-4.71-10.5-10.5s4.71-10.5 10.5-10.5 10.5 4.71 10.5 10.5-4.71 10.5-10.5 10.5zm0-20c-5.238 0-9.5 4.262-9.5 9.5s4.262 9.5 9.5 9.5 9.5-4.262 9.5-9.5-4.262-9.5-9.5-9.5z"/><path d="m10.5 15c-2.481 0-4.5-2.019-4.5-4.5s2.019-4.5 4.5-4.5 4.5 2.019 4.5 4.5-2.019 4.5-4.5 4.5zm0-8c-1.93 0-3.5 1.57-3.5 3.5s1.57 3.5 3.5 3.5 3.5-1.57 3.5-3.5-1.57-3.5-3.5-3.5z"/><path d="m11 20.5h-1v-4h1zm6.219-2.574-2.828-2.828.707-.707 2.828 2.828zm-13.435 0-.707-.707 2.828-2.828.707.707zm16.716-6.926h-4v-1h4zm-16 0h-4v-1h4zm10.597-4.39-.707-.707 2.828-2.828.707.707zm-9.194 0-2.827-2.827.707-.707 2.827 2.827zm5.097-2.11h-1v-4h1z"/></svg>