<svg viewBox="0 0 45 26" xmlns="http://www.w3.org/2000/svg"><path d="m37 26h-32c-2.757 0-5-2.243-5-5v-16c0-2.757 2.243-5 5-5h32c2.757 0 5 2.243 5 5v3h2c.553 0 1 .448 1 1v8c0 .553-.447 1-1 1h-2v3c0 2.757-2.243 5-5 5zm-32-24c-1.654 0-3 1.346-3 3v16c0 1.654 1.346 3 3 3h32c1.654 0 3-1.346 3-3v-4c0-.553.447-1 1-1h2v-6h-2c-.553 0-1-.448-1-1v-4c0-1.654-1.346-3-3-3z"/><path d="m5 22c-.552 0-1-.447-1-1v-16c0-.552.448-1 1-1s1 .448 1 1v16c0 .553-.448 1-1 1z"/><path d="m9 22c-.552 0-1-.447-1-1v-16c0-.552.448-1 1-1s1 .448 1 1v16c0 .553-.448 1-1 1z"/><path d="m13 22c-.552 0-1-.447-1-1v-16c0-.552.448-1 1-1s1 .448 1 1v16c0 .553-.448 1-1 1z"/><path d="m17 22c-.552 0-1-.447-1-1v-16c0-.552.448-1 1-1s1 .448 1 1v16c0 .553-.448 1-1 1z"/><path d="m21 22c-.552 0-1-.447-1-1v-16c0-.552.448-1 1-1s1 .448 1 1v16c0 .553-.448 1-1 1z"/><path d="m25 22c-.553 0-1-.447-1-1v-16c0-.552.447-1 1-1s1 .448 1 1v16c0 .553-.447 1-1 1z"/></svg>