<svg viewBox="0 0 21.995 19.044" xmlns="http://www.w3.org/2000/svg"><path d="m19.468 19.044h-16.943c-.438 0-.87-.112-1.25-.324-.385-.214-.706-.525-.93-.9-.223-.378-.343-.808-.345-1.246-.003-.437.111-.867.329-1.246l8.664-14.391c.208-.262.471-.48.772-.64.745-.396 1.737-.396 2.485 0 .389.206.713.509.939.878l8.472 14.145c.223.385.337.815.334 1.254-.003.438-.122.868-.346 1.245-.224.375-.545.687-.93.9-.381.212-.813.324-1.252.324zm-9.952-17.107-8.325 13.897c-.125.218-.193.475-.191.733.001.262.072.518.205.741s.325.409.557.538c.233.13.471.212.769.197h16.936c.27 0 .534-.068.767-.197.23-.129.423-.315.557-.539.133-.223.204-.479.205-.739.002-.261-.066-.517-.195-.741l-8.467-14.133c-.13-.212-.322-.391-.553-.513-.459-.244-1.089-.244-1.547 0-.231.123-.423.301-.556.518l-.163.239z"/><path d="m10.442 6.577h1v4h-1z"/><circle cx="10.942" cy="14.577" r=".5"/></svg>