<svg viewBox="0 0 23.888 21.929" xmlns="http://www.w3.org/2000/svg"><path d="m18.392 21.929c-.076 0-.152-.004-.229-.011-3.147-.342-6.207-1.431-8.856-3.148-2.459-1.562-4.587-3.69-6.15-6.151-1.723-2.659-2.812-5.733-3.146-8.886-.032-.355.008-.7.119-1.03.112-.332.288-.63.523-.888s.517-.46.836-.602c.318-.141.657-.213 1.007-.213h3.001c.625.007 1.19.208 1.65.604s.76.944.845 1.546c.123.925.349 1.834.673 2.705.168.448.205.932.105 1.4-.101.469-.332.897-.668 1.237l-.999.999c1.305 2.169 3.124 3.988 5.292 5.293l.998-.998c.343-.339.771-.569 1.238-.669.467-.101.954-.063 1.401.105.871.324 1.78.551 2.699.671.612.088 1.165.393 1.562.86.396.467.605 1.061.593 1.672v2.994c0 .351-.069.691-.21 1.011s-.342.604-.6.84c-.262.238-.561.414-.89.525-.259.088-.525.133-.797.133zm-12.874-19.929h-3.02c-.209 0-.413.043-.604.127-.192.085-.36.207-.501.361-.142.155-.247.334-.314.533-.066.198-.091.404-.072.613.317 2.99 1.352 5.912 2.991 8.443 1.488 2.342 3.509 4.363 5.849 5.85 2.523 1.637 5.432 2.671 8.416 2.995.202.021.407-.006.605-.074.199-.067.38-.173.536-.316.152-.14.273-.31.358-.503.083-.189.127-.399.126-.607v-3.014c.009-.369-.117-.727-.355-1.008-.237-.28-.569-.464-.935-.516-.988-.13-1.971-.374-2.915-.726-.271-.103-.562-.125-.842-.063-.281.06-.537.197-.741.399l-1.538 1.538-.331-.188c-2.581-1.468-4.72-3.607-6.188-6.188l-.188-.331 1.54-1.54c.2-.202.338-.459.399-.74.06-.281.038-.572-.063-.841-.351-.942-.596-1.924-.728-2.92-.05-.356-.23-.686-.506-.923-.272-.234-.619-.363-.978-.363z"/><path d="m18.888 9.5h-1c0-1.202-.468-2.333-1.318-3.182-.85-.85-1.979-1.318-3.182-1.318v-1c1.469 0 2.85.572 3.889 1.611s1.611 2.42 1.611 3.889z"/><path d="m23.888 10.5h-1c0-2.538-.988-4.923-2.782-6.718-1.795-1.794-4.181-2.782-6.718-2.782v-1c2.804 0 5.44 1.092 7.425 3.075 1.983 1.983 3.075 4.621 3.075 7.425z"/></svg>